<mxfile host="65bd71144e">
    <diagram id="ulO5jUC5yputMnTg3F_0" name="ページ1">
        <mxGraphModel dx="1441" dy="692" grid="1" gridSize="10" guides="1" tooltips="1" connect="1" arrows="1" fold="1" page="1" pageScale="1" pageWidth="900" pageHeight="1600" math="0" shadow="0">
            <root>
                <mxCell id="0"/>
                <mxCell id="1" parent="0"/>
                <mxCell id="20" value="" style="group" vertex="1" connectable="0" parent="1">
                    <mxGeometry x="-30" y="275" width="780" height="160" as="geometry"/>
                </mxCell>
                <mxCell id="2" value="&lt;font style=&quot;&quot;&gt;&lt;span style=&quot;font-size: 24px;&quot;&gt;&amp;nbsp;&lt;/span&gt;&lt;font style=&quot;font-size: 24px;&quot;&gt;EVM&lt;/font&gt;&lt;/font&gt;" style="shape=ext;double=1;rounded=1;whiteSpace=wrap;html=1;strokeColor=#3399FF;" vertex="1" parent="20">
                    <mxGeometry x="190" y="35" width="140" height="90" as="geometry"/>
                </mxCell>
                <mxCell id="8" style="edgeStyle=none;html=1;exitX=0;exitY=0.5;exitDx=0;exitDy=0;exitPerimeter=0;entryX=0;entryY=0.5;entryDx=0;entryDy=0;fontSize=20;endArrow=block;endFill=1;strokeWidth=4;strokeColor=#3399FF;" edge="1" parent="20" source="5" target="2">
                    <mxGeometry relative="1" as="geometry"/>
                </mxCell>
                <mxCell id="5" value="&lt;font style=&quot;font-size: 20px;&quot;&gt;Solidity&lt;br&gt;&lt;/font&gt;" style="shape=note;whiteSpace=wrap;html=1;backgroundOutline=1;fontColor=#000000;darkOpacity=0.05;fillColor=#3399FF;strokeColor=none;fillStyle=solid;direction=west;gradientDirection=north;gradientColor=#3399FF;shadow=1;size=20;pointerEvents=1;strokeWidth=3;fontSize=24;" vertex="1" parent="20">
                    <mxGeometry width="140" height="160" as="geometry"/>
                </mxCell>
                <mxCell id="19" style="edgeStyle=none;html=1;exitX=0;exitY=0.5;exitDx=0;exitDy=0;exitPerimeter=0;strokeColor=#3399FF;strokeWidth=4;fontSize=20;endArrow=block;endFill=1;" edge="1" parent="20" source="12">
                    <mxGeometry relative="1" as="geometry">
                        <mxPoint x="600" y="80" as="targetPoint"/>
                    </mxGeometry>
                </mxCell>
                <mxCell id="12" value="&lt;font style=&quot;font-size: 20px;&quot;&gt;bytecode&lt;br&gt;&lt;/font&gt;" style="shape=note;whiteSpace=wrap;html=1;backgroundOutline=1;fontColor=#000000;darkOpacity=0.05;fillColor=#3399FF;strokeColor=none;fillStyle=solid;direction=west;gradientDirection=north;gradientColor=#3399FF;shadow=1;size=20;pointerEvents=1;strokeWidth=3;fontSize=24;" vertex="1" parent="20">
                    <mxGeometry x="380" width="140" height="160" as="geometry"/>
                </mxCell>
                <mxCell id="13" style="edgeStyle=none;html=1;exitX=1;exitY=0.5;exitDx=0;exitDy=0;strokeColor=#3399FF;strokeWidth=4;fontSize=20;endArrow=block;endFill=1;" edge="1" parent="20" source="2" target="12">
                    <mxGeometry relative="1" as="geometry"/>
                </mxCell>
                <mxCell id="18" value="" style="group" vertex="1" connectable="0" parent="20">
                    <mxGeometry x="590" y="5" width="190" height="150" as="geometry"/>
                </mxCell>
                <mxCell id="15" value="" style="shape=trapezoid;perimeter=trapezoidPerimeter;whiteSpace=wrap;html=1;fixedSize=1;strokeColor=#3399FF;strokeWidth=3;fontSize=20;fillColor=none;gradientColor=#18141D;" vertex="1" parent="18">
                    <mxGeometry y="90" width="190" height="60" as="geometry"/>
                </mxCell>
                <mxCell id="16" value="" style="rounded=0;whiteSpace=wrap;html=1;strokeColor=#3399FF;strokeWidth=3;fontSize=20;fillColor=none;gradientColor=#18141D;" vertex="1" parent="18">
                    <mxGeometry x="20" width="150" height="90" as="geometry"/>
                </mxCell>
                <mxCell id="17" value="" style="rounded=0;whiteSpace=wrap;html=1;strokeColor=#3399FF;strokeWidth=3;fontSize=20;fillColor=none;gradientColor=#18141D;" vertex="1" parent="18">
                    <mxGeometry x="30" y="7.5" width="130" height="75" as="geometry"/>
                </mxCell>
            </root>
        </mxGraphModel>
    </diagram>
</mxfile>